#!OML:ASF X:\für Bonn\!DataBase\2005_08_10_Bjorn_Final\c3d\bjorn.ASF
:FULLY-SPECIFIED
:DEGREES
155
root 23.9025 16.8581 -0.684465 26.7021 -69.7303 -340.577
lowerback 59.9987 -2.90194 9.09243
upperback 17.0746 -0.592779 0.685767
thorax -1.8783 -0.465816 -2.91026
lowerneck 1.97299 -2.01998 7.753
upperneck -16.2153 -2.95766 -3.67529
head -5.37203 -1.80961 -2.26593
rclavicle -1.27222e-014 -2.62396e-014
rhumerus 79.2286 2.25463 -59.0691
rradius 16.4607
rwrist -5.05548
rhand -12.2827 12.1298
rfingers 7.12502
rthumb 13.7846 -17.3935
lclavicle -1.27222e-014 -2.62396e-014
lhumerus 65.2696 -4.71629 107.278
lradius 12.0909
lwrist -61.1378
lhand -44.7184 -5.65087
lfingers 7.12502
lthumb -17.5127 23.5803
rfemur -92.7748 -17.2655 19.0039
rtibia 68.4
rfoot -14.9754 10.1651
rtoes -4.35556
lfemur -90.7358 6.64885 -33.4466
ltibia 66.0274
lfoot -12.2728 -7.11803
ltoes -7.50248
156
root 23.8992 16.8467 -0.6803 26.8488 -69.6343 -340.776
lowerback 60.2348 -2.89477 9.05963
upperback 17.0467 -0.579639 0.677925
thorax -1.91461 -0.462532 -2.90282
lowerneck 1.73999 -1.99304 7.6929
upperneck -16.0623 -2.93775 -3.65237
head -5.2823 -1.79763 -2.25209
rclavicle 6.52014e-014 -2.38542e-015
rhumerus 79.2643 2.37962 -58.6295
rradius 16.8287
rwrist -5.23723
rhand -12.4802 12.1173
rfingers 7.12502
rthumb 13.5942 -17.4188
lclavicle 6.52014e-014 -2.38542e-015
lhumerus 65.3471 -4.64902 107.328
lradius 12.2037
lwrist -61.1474
lhand -45.8714 -5.54236
lfingers 7.12502
lthumb -18.622 23.5863
rfemur -92.7886 -17.2902 19.0341
rtibia 68.5722
rfoot -15.1025 10.1171
rtoes -4.46931
lfemur -90.7703 6.60926 -33.337
ltibia 66.2015
lfoot -12.3451 -7.136
ltoes -7.28866
157
root 23.8961 16.8343 -0.676088 26.9237 -69.5395 -340.93
lowerback 60.4875 -2.89446 9.03645
upperback 17.0174 -0.56946 0.650999
thorax -1.95206 -0.457925 -2.91888
lowerneck 1.54299 -1.97856 7.6979
upperneck -15.9308 -2.93142 -3.65366
head -5.20773 -1.79467 -2.25551
rclavicle -3.65764e-014 -1.43125e-014
rhumerus 79.2472 2.50142 -58.0988
rradius 17.236
rwrist -5.59468
rhand -12.7112 12.1396
rfingers 7.12502
rthumb 13.3716 -17.4113
lclavicle -3.65764e-014 -1.43125e-014
lhumerus 65.4037 -4.62834 107.307
lradius 12.3304
lwrist -61.0525
lhand -46.918 -5.49842
lfingers 7.12502
lthumb -19.6285 23.5307
rfemur -92.7883 -17.3491 19.0824
rtibia 68.7568
rfoot -15.2285 10.1064
rtoes -4.72719
lfemur -90.7786 6.57226 -33.2407
ltibia 66.3864
lfoot -12.4243 -7.15739
ltoes -7.07372
158
root 23.8927 16.8217 -0.673269 27.0568 -69.4286 -341.12
lowerback 60.6854 -2.87716 8.98808
upperback 17.0089 -0.558342 0.657437
thorax -1.96578 -0.456746 -2.88996
lowerneck 1.27288 -1.94978 7.66749
upperneck -15.7582 -2.91547 -3.66962
head -5.10707 -1.78428 -2.25893
rclavicle 3.02153e-014 4.92986e-014
rhumerus 79.2546 2.64597 -57.6272
rradius 17.6642
rwrist -5.8118
rhand -12.9602 12.21
rfingers 7.12502
rthumb 13.1316 -17.3565
lclavicle 3.02153e-014 4.92986e-014
lhumerus 65.5018 -4.58015 107.263
lradius 12.428
lwrist -60.8744
lhand -47.9427 -5.44329
lfingers 7.12502
lthumb -20.6133 23.4822
rfemur -92.8117 -17.4031 19.1479
rtibia 68.9413
rfoot -15.3362 10.0864
rtoes -4.73966
lfemur -90.8173 6.53413 -33.1464
ltibia 66.5734
lfoot -12.5123 -7.17352
ltoes -7.04594
159
root 23.8899 16.8088 -0.669626 27.1588 -69.3388 -341.277
lowerback 60.8868 -2.86511 8.93806
upperback 16.9874 -0.554348 0.634402
thorax -1.99515 -0.456128 -2.88983
lowerneck 1.06024 -1.92455 7.67223
upperneck -15.6161 -2.89742 -3.68557
head -5.02628 -1.77457 -2.26767
rclavicle 5.24792e-014 -7.31528e-014
rhumerus 79.2496 2.79107 -57.2182
rradius 18.0318
rwrist -5.99756
rhand -13.2012 12.3794
rfingers 7.12502
rthumb 12.8992 -17.2019
lclavicle 5.24792e-014 -7.31528e-014
lhumerus 65.5694 -4.50527 107.283
lradius 12.5355
lwrist -60.7653
lhand -48.9345 -5.37321
lfingers 7.12502
lthumb -21.5661 23.446
rfemur -92.8364 -17.4397 19.1814
rtibia 69.1347
rfoot -15.4717 10.0526
rtoes -4.9011
lfemur -90.867 6.51037 -33.0789
ltibia 66.7642
lfoot -12.5891 -7.20417
ltoes -6.92746
160
root 23.8873 16.7944 -0.665829 27.2169 -69.2408 -341.383
lowerback 61.0801 -2.85036 8.89194
upperback 16.9505 -0.540467 0.630901
thorax -2.04042 -0.453348 -2.87373
lowerneck 0.850552 -1.91951 7.65816
upperneck -15.467 -2.91087 -3.71749
head -4.9456 -1.77857 -2.27664
rclavicle -4.45278e-014 5.40694e-014
rhumerus 79.1722 2.93992 -56.6827
rradius 18.4825
rwrist -6.27886
rhand -13.4917 12.5559
rfingers 7.12502
rthumb 12.6192 -17.043
lclavicle -4.45278e-014 5.40694e-014
lhumerus 65.6312 -4.43891 107.397
lradius 12.6102
lwrist -60.634
lhand -49.8578 -5.31602
lfingers 7.12502
lthumb -22.4526 23.3989
rfemur -92.8744 -17.4966 19.2028
rtibia 69.3361
rfoot -15.6029 10.0231
rtoes -5.03884
lfemur -90.9114 6.47213 -33.0274
ltibia 66.9546
lfoot -12.6705 -7.25102
ltoes -6.73093
161
root 23.8848 16.7796 -0.662796 27.3733 -69.1321 -341.61
lowerback 61.2517 -2.83857 8.8681
upperback 16.9348 -0.525498 0.621371
thorax -2.05978 -0.447926 -2.87505
lowerneck 0.590776 -1.9053 7.63296
upperneck -15.254 -2.90685 -3.69814
head -4.83539 -1.77532 -2.2691
rclavicle -8.11041e-014 -4.05521e-014
rhumerus 79.1265 3.08245 -56.3361
rradius 18.8502
rwrist -6.28936
rhand -13.8192 12.8329
rfingers 7.12502
rthumb 12.3035 -16.7851
lclavicle -8.11041e-014 -4.05521e-014
lhumerus 65.7215 -4.4503 107.201
lradius 12.6914
lwrist -60.153
lhand -50.7512 -5.26621
lfingers 7.12502
lthumb -23.3099 23.3426
rfemur -92.8936 -17.5308 19.2613
rtibia 69.5378
rfoot -15.7282 10.0151
rtoes -5.15066
lfemur -90.9648 6.46867 -32.9551
ltibia 67.1631
lfoot -12.7615 -7.28242
ltoes -6.74815
